<svg xmlns="http://www.w3.org/2000/svg" viewBox="0 0 512 512"><path d="M256 300.138c-34.428 0-61.793 27.365-61.793 61.793s27.365 61.793 61.793 61.793 61.793-27.365 61.793-61.793-27.365-61.793-61.793-61.793zm0 105.931c-24.717 0-44.138-19.421-44.138-44.138s19.421-44.138 44.138-44.138 44.138 19.421 44.138 44.138-19.421 44.138-44.138 44.138zM353.103 194.207c-34.428 0-61.793 27.366-61.793 61.793 0 34.428 27.365 61.793 61.793 61.793s61.793-27.365 61.793-61.793c.001-34.428-27.365-61.793-61.793-61.793zm0 105.931c-24.717 0-44.138-19.421-44.138-44.138s19.421-44.138 44.138-44.138 44.138 19.421 44.138 44.138-19.42 44.138-44.138 44.138zM450.207 88.276c-34.428 0-61.793 27.365-61.793 61.793s27.365 61.793 61.793 61.793S512 184.497 512 150.069s-27.365-61.793-61.793-61.793zm0 105.931c-24.717 0-44.138-19.421-44.138-44.138s19.421-44.138 44.138-44.138 44.138 19.421 44.138 44.138-19.421 44.138-44.138 44.138zM220.69 256c0-34.428-27.365-61.793-61.793-61.793S97.104 221.573 97.104 256c0 34.428 27.366 61.793 61.793 61.793S220.69 290.428 220.69 256zm-61.793 44.138c-24.717 0-44.138-19.421-44.138-44.138s19.421-44.138 44.138-44.138 44.138 19.421 44.138 44.138-19.421 44.138-44.138 44.138zM123.586 150.069c0-34.428-27.365-61.793-61.793-61.793C27.366 88.276 0 115.641 0 150.069s27.366 61.793 61.793 61.793c34.428 0 61.793-27.365 61.793-61.793zm-61.793 44.138c-24.717 0-44.138-19.421-44.138-44.138s19.421-44.138 44.138-44.138 44.138 19.421 44.138 44.138-19.421 44.138-44.138 44.138z"/></svg>