<svg xmlns="http://www.w3.org/2000/svg" viewBox="0 0 512 512"><path d="M256 192c-35.292 0-64 28.708-64 64s28.708 64 64 64 64-28.708 64-64-28.708-64-64-64zm0 106.667c-23.521 0-42.667-19.135-42.667-42.667s19.146-42.667 42.667-42.667 42.667 19.135 42.667 42.667-19.146 42.667-42.667 42.667zM448 192c-35.292 0-64 28.708-64 64s28.708 64 64 64 64-28.708 64-64-28.708-64-64-64zm0 106.667c-23.521 0-42.667-19.135-42.667-42.667s19.146-42.667 42.667-42.667 42.667 19.135 42.667 42.667-19.146 42.667-42.667 42.667zM64 192c-35.292 0-64 28.708-64 64s28.708 64 64 64 64-28.708 64-64-28.708-64-64-64zm0 106.667c-23.521 0-42.667-19.135-42.667-42.667S40.479 213.333 64 213.333s42.667 19.135 42.667 42.667S87.521 298.667 64 298.667z"/></svg>