<svg xmlns="http://www.w3.org/2000/svg" viewBox="0 0 469.333 469.333"><g fill="#f44336"><path d="M10.667 298.667C4.779 298.667 0 293.888 0 288V181.333c0-5.888 4.779-10.667 10.667-10.667s10.667 4.779 10.667 10.667V288c-.001 5.888-4.779 10.667-10.667 10.667zM74.667 384C68.779 384 64 379.221 64 373.333V96c0-5.888 4.779-10.667 10.667-10.667S85.333 90.112 85.333 96v277.333c0 5.888-4.778 10.667-10.666 10.667zM138.667 469.333c-5.888 0-10.667-4.779-10.667-10.667v-448C128 4.779 132.779 0 138.667 0s10.667 4.779 10.667 10.667v448c-.001 5.888-4.779 10.666-10.667 10.666zM202.667 448c-5.888 0-10.667-4.779-10.667-10.667V32c0-5.888 4.779-10.667 10.667-10.667S213.333 26.112 213.333 32v405.333c0 5.888-4.778 10.667-10.666 10.667zM266.667 362.667c-5.888 0-10.667-4.779-10.667-10.667V117.333c0-5.888 4.779-10.667 10.667-10.667s10.667 4.779 10.667 10.667V352c-.001 5.888-4.779 10.667-10.667 10.667zM330.667 448c-5.888 0-10.667-4.779-10.667-10.667V32c0-5.888 4.779-10.667 10.667-10.667S341.334 26.112 341.334 32v405.333c-.001 5.888-4.779 10.667-10.667 10.667zM394.667 362.667c-5.888 0-10.667-4.779-10.667-10.667V117.333c0-5.888 4.779-10.667 10.667-10.667s10.667 4.779 10.667 10.667V352c-.001 5.888-4.779 10.667-10.667 10.667zM458.667 298.667c-5.888 0-10.667-4.779-10.667-10.667V181.333c0-5.888 4.779-10.667 10.667-10.667s10.667 4.779 10.667 10.667V288c-.001 5.888-4.779 10.667-10.667 10.667z"/></g><path d="M10.667 298.667C4.779 298.667 0 293.888 0 288V181.333c0-5.888 4.779-10.667 10.667-10.667s10.667 4.779 10.667 10.667V288c-.001 5.888-4.779 10.667-10.667 10.667zM74.667 384C68.779 384 64 379.221 64 373.333V96c0-5.888 4.779-10.667 10.667-10.667S85.333 90.112 85.333 96v277.333c0 5.888-4.778 10.667-10.666 10.667zM138.667 469.333c-5.888 0-10.667-4.779-10.667-10.667v-448C128 4.779 132.779 0 138.667 0s10.667 4.779 10.667 10.667v448c-.001 5.888-4.779 10.666-10.667 10.666zM202.667 448c-5.888 0-10.667-4.779-10.667-10.667V32c0-5.888 4.779-10.667 10.667-10.667S213.333 26.112 213.333 32v405.333c0 5.888-4.778 10.667-10.666 10.667zM266.667 362.667c-5.888 0-10.667-4.779-10.667-10.667V117.333c0-5.888 4.779-10.667 10.667-10.667s10.667 4.779 10.667 10.667V352c-.001 5.888-4.779 10.667-10.667 10.667zM330.667 448c-5.888 0-10.667-4.779-10.667-10.667V32c0-5.888 4.779-10.667 10.667-10.667S341.334 26.112 341.334 32v405.333c-.001 5.888-4.779 10.667-10.667 10.667zM394.667 362.667c-5.888 0-10.667-4.779-10.667-10.667V117.333c0-5.888 4.779-10.667 10.667-10.667s10.667 4.779 10.667 10.667V352c-.001 5.888-4.779 10.667-10.667 10.667zM458.667 298.667c-5.888 0-10.667-4.779-10.667-10.667V181.333c0-5.888 4.779-10.667 10.667-10.667s10.667 4.779 10.667 10.667V288c-.001 5.888-4.779 10.667-10.667 10.667z"/></svg>